<svg version="1.2" xmlns="http://www.w3.org/2000/svg" viewBox="0 0 255 70" width="255" height="70" role="img" aria-label="ToolStack Reviews"><style>.a{fill:#11141a}.b{fill:#0d9488}</style><path class="a" d="m36.1 25.7c-3.5-0.1-7.2 0.1-10.7 0-2.1 0-5.1 0.4-6.7-0.9-0.9-0.7-1.5-1.8-1.6-3-0.1-1.1 0.3-2.1 1-3 1.4-1.8 3.6-1.6 5.6-1.6q1.4 0 2.7 0h4.7c3.3 0 5.7 0.1 8.3 2.3 1.9 1.6 3 3.8 3.2 6.1 0.3 4-1.3 6-4 8.5l-2.9 2.8c-0.6 0.5-1.4 1.3-1.9 1.8l-0.1 0.1q5.1-0.1 10.2 0c2.6 0 4.6 0.9 6.4 2.8 1.6 1.6 2.4 3.8 2.3 6.1-0.2 3.9-2.5 5.8-5.1 8.2q-2.2 2.1-4.4 4.1c-1.5 1.4-2.9 3-5.1 2.9-1.1 0-2.1-0.3-2.9-1.1-0.7-0.7-1-1.7-1-2.6 0-1 0.5-2.1 1.1-2.7 0.7-1 2.5-2.6 3.4-3.5l6.1-5.8c-3.6-0.2-7.2 0.1-10.8-0.1-4.7-0.1-8.5-3.8-8.3-8.6 0.1-1.2 0.5-2.5 1.1-3.5 0.9-1.5 2.8-3.1 4.1-4.3q2.6-2.5 5.3-5z"/><path class="b" d="m35.2 56.5c0.3-0.2 1-0.5 1.3-0.5 1.2-0.2 2.6-0.1 3.8-0.1h7.2q-2.2 2.1-4.4 4.1c-1.5 1.4-2.9 3-5.1 2.9-1.1 0-2.1-0.3-2.9-1.1-0.7-0.7-1-1.7-1-2.6 0-1 0.5-2.1 1.1-2.7z"/><path class="a" d="m39.9 17.2c1 0 2.4 0 3.5 0h6.7 4.5c0.9 0 2 0 2.8 0.1 1.3 0.3 2.6 1.3 3.1 2.5 0.7 1.8 0.2 3.3-0.9 4.7-0.9 0.8-1.9 1.2-3.1 1.2q-1.6 0-3.2 0h-8.1c-0.5-3.6-2.2-6.5-5.3-8.5z"/><path class="a" d="m77.7 44.2v-20h5.4v20zm-6.8-19.3v-4.8h19v4.8z"/><path class="a" d="m101.8 44.9q-2.4 0-4.2-0.8-1.9-0.7-3.1-2-1.3-1.3-2-3-0.6-1.6-0.6-3.5v-0.7q0-1.9 0.6-3.6 0.7-1.7 2-3 1.3-1.3 3.2-2.1 1.8-0.7 4.1-0.7 2.3 0 4.2 0.7 1.8 0.8 3.1 2.1 1.3 1.3 2 3 0.7 1.7 0.7 3.6v0.7q0 1.9-0.7 3.5-0.6 1.7-1.9 3-1.3 1.3-3.1 2-1.9 0.8-4.3 0.8zm0-4.5q1.6 0 2.6-0.7 1-0.6 1.5-1.8 0.6-1.2 0.6-2.7 0-1.5-0.6-2.7-0.5-1.1-1.6-1.8-1-0.7-2.5-0.7-1.5 0-2.5 0.7-1 0.7-1.6 1.8-0.5 1.2-0.5 2.7 0 1.5 0.5 2.7 0.5 1.2 1.6 1.8 1 0.7 2.5 0.7z"/><path class="a" d="m124.3 44.9q-2.4 0-4.2-0.8-1.9-0.7-3.2-2-1.2-1.3-1.9-3-0.7-1.6-0.7-3.5v-0.7q0-1.9 0.7-3.6 0.7-1.7 2-3 1.3-1.3 3.1-2.1 1.9-0.7 4.2-0.7 2.3 0 4.1 0.7 1.9 0.8 3.2 2.1 1.3 1.3 2 3 0.6 1.7 0.6 3.6v0.7q0 1.9-0.6 3.5-0.7 1.7-2 3-1.2 1.3-3.1 2-1.8 0.8-4.2 0.8zm0-4.5q1.5 0 2.6-0.7 1-0.6 1.5-1.8 0.5-1.2 0.5-2.7 0-1.5-0.5-2.7-0.5-1.1-1.6-1.8-1-0.7-2.5-0.7-1.5 0-2.5 0.7-1.1 0.7-1.6 1.8-0.6 1.2-0.6 2.7 0 1.5 0.6 2.7 0.5 1.2 1.5 1.8 1.1 0.7 2.6 0.7z"/><path class="a" d="m138.2 44.2v-24.1h5.3v24.1zm-2.2-20.2v-3.9h7.5v3.9z"/><path class="a" d="m157 44.9q-3.2 0-5.5-1.1-2.2-1-3.4-2.8-1.2-1.8-1.2-4.2h5.3q0 0.9 0.5 1.7 0.5 0.9 1.6 1.3 1 0.5 2.7 0.5 1.5 0 2.6-0.4 1-0.4 1.5-1.1 0.5-0.7 0.5-1.6 0-1.2-1-1.9-0.9-0.7-3.1-0.8l-1.9-0.2q-3.6-0.3-5.7-2.2-2.1-2-2.1-5.2 0-2.3 1.1-4 1-1.7 3-2.6 2-0.9 4.7-0.9 2.9 0 4.9 1 2 1 3.1 2.7 1.1 1.8 1.1 4.2h-5.3q0-0.9-0.4-1.7-0.4-0.7-1.3-1.2-0.8-0.4-2.1-0.4-1.2 0-2 0.4-0.8 0.4-1.2 1-0.4 0.7-0.4 1.5 0 1 0.7 1.8 0.8 0.7 2.4 0.9l1.9 0.1q2.6 0.3 4.6 1.2 2 0.9 3.2 2.5 1.1 1.5 1.1 3.8 0 2.3-1.2 4-1.2 1.7-3.4 2.7-2.2 1-5.3 1z"/><path class="a" d="m178.6 44.5q-2.8 0-4.4-0.7-1.7-0.7-2.5-2.3-0.8-1.6-0.8-4.4v-15.8h4.9v16.1q0 1.2 0.7 1.9 0.7 0.7 1.9 0.7h2.7v4.5zm-10.4-14.5v-3.8h12.9v3.8z"/><path class="a" d="m195.6 44.2v-5.3h-0.9v-5.8q0-1.4-0.7-2.1-0.6-0.7-2.1-0.7-0.7 0-1.9 0-1.2 0.1-2.4 0.1-1.3 0.1-2.3 0.2v-4.5q0.8-0.1 1.8-0.1 1-0.1 2.1-0.1 1.1 0 2 0 2.8 0 4.7 0.7 1.9 0.8 2.9 2.4 1 1.6 1 4.1v11.1zm-5.8 0.5q-1.9 0-3.4-0.7-1.5-0.7-2.3-2-0.8-1.3-0.8-3.1 0-2 1-3.3 1-1.2 2.9-1.9 1.8-0.6 4.2-0.6h3.9v3h-3.9q-1.4 0-2.1 0.6-0.8 0.7-0.8 1.9 0 1.1 0.8 1.8 0.7 0.6 2.1 0.6 0.9 0 1.6-0.3 0.7-0.3 1.2-1.1 0.4-0.7 0.5-2.1l1.3 1.3q-0.2 1.9-1 3.2-0.7 1.3-2 2-1.3 0.7-3.2 0.7z"/><path class="a" d="m212.4 44.9q-2.4 0-4.1-0.8-1.7-0.8-2.9-2.1-1.1-1.3-1.7-3-0.6-1.7-0.6-3.4v-0.7q0-1.8 0.6-3.5 0.6-1.7 1.8-3 1.2-1.4 2.9-2.1 1.7-0.8 4-0.8 2.4 0 4.3 1 1.8 0.9 3 2.6 1.1 1.7 1.2 3.9h-5.1q-0.2-1.3-1-2.1-0.9-0.9-2.4-0.9-1.4 0-2.2 0.7-0.9 0.6-1.3 1.8-0.5 1.2-0.5 2.7 0 1.5 0.4 2.7 0.4 1.1 1.3 1.8 0.9 0.6 2.3 0.6 1 0 1.8-0.3 0.7-0.4 1.2-1.1 0.4-0.7 0.5-1.6h5.2q-0.1 2.3-1.3 4-1.2 1.7-3.1 2.6-1.9 1-4.3 1z"/><path class="a" d="m237.2 44.2l-5.7-8.4h-2.6l7.4-9.6h5.5l-6.9 8.9 0.1-2.6 8.1 11.7zm-12.7 0v-24.1h5.3v24.1z"/><path class="b" d="m75.1 60.2v-7.3h2.2q0.7 0 1.2 0.3 0.5 0.2 0.8 0.7 0.3 0.5 0.3 1.1 0 0.8-0.4 1.3-0.4 0.5-1 0.8l1.5 3.1h-1.1l-1.4-3h-1.1v3zm0.9-3.9h1.3q0.6 0 0.9-0.4 0.3-0.3 0.3-0.9 0-0.5-0.3-0.9-0.3-0.3-0.9-0.3h-1.3z"/><path class="b" d="m85.2 60.2v-7.3h4.2v0.9h-3.3v2.2h3v0.8h-3v2.5h3.3v0.9z"/><path class="b" d="m96.5 60.2l-1.9-7.3h1.1l1.2 4.9q0.1 0.5 0.2 0.9 0.1 0.5 0.1 0.7 0-0.2 0.1-0.7 0.1-0.4 0.2-0.9l1.2-4.9h1l-1.9 7.3z"/><path class="b" d="m105.2 60.2v-0.9h1.5v-5.5h-1.5v-0.9h4v0.9h-1.5v5.5h1.5v0.9z"/><path class="b" d="m115.2 60.2v-7.3h4.2v0.9h-3.3v2.2h3v0.8h-3v2.5h3.3v0.9z"/><path class="b" d="m125.2 60.2l-0.8-7.3h0.9l0.5 5.3q0 0.4 0.1 0.7 0 0.4 0 0.6 0-0.2 0-0.6 0.1-0.3 0.1-0.7l0.7-5.3h1l0.7 5.3q0 0.4 0 0.7 0.1 0.4 0.1 0.6 0-0.2 0-0.6 0.1-0.3 0.1-0.7l0.5-5.3h0.9l-0.9 7.3h-1.2l-0.6-5.4q0-0.3-0.1-0.7 0-0.3 0-0.5 0 0.2 0 0.5-0.1 0.4-0.1 0.7l-0.7 5.4z"/><path class="b" d="m137.2 60.3q-1.1 0-1.7-0.5-0.6-0.6-0.6-1.6h1q0 0.6 0.3 0.9 0.4 0.3 1 0.3 0.6 0 1-0.3 0.3-0.3 0.3-0.9 0-0.4-0.2-0.7-0.2-0.3-0.6-0.4l-1.1-0.3q-0.7-0.2-1.1-0.8-0.5-0.5-0.5-1.2 0-0.6 0.3-1 0.3-0.5 0.8-0.7 0.4-0.3 1.1-0.3 0.6 0 1.1 0.3 0.5 0.2 0.7 0.7 0.3 0.4 0.3 1h-1q0-0.5-0.3-0.8-0.3-0.3-0.8-0.3-0.6 0-0.9 0.3-0.3 0.3-0.3 0.8 0 0.4 0.2 0.6 0.2 0.3 0.6 0.4l1.1 0.3q0.8 0.2 1.2 0.8 0.4 0.5 0.4 1.3 0 0.7-0.3 1.1-0.3 0.5-0.8 0.8-0.5 0.2-1.2 0.2z"/></svg>
