<svg xmlns="http://www.w3.org/2000/svg" width="512" height="512" viewBox="0 0 512 512" role="img" aria-label="ToolStack icon"><circle cx="256.0" cy="256.0" r="255.0" fill="#11141A"/><g transform="translate(111.9,106.0)"><g transform="translate(-282.596,-275.166) scale(0.41571)">
<path d="M 980.102 799.157 C 923.963 797.639 867.157 800.041 811.087 798.874 C 779.194 798.21 731.889 805.339 706.378 784.382 C 692.168 772.803 683.185 756.015 681.438 737.768 C 679.783 719.961 686.109 703.839 697.106 690.088 C 719.639 661.911 752.767 665.621 784.919 665.752 C 799.043 665.81 813.229 665.803 827.343 665.796 L 900.905 665.774 C 952.13 665.788 990.03 666.223 1032.01 701.517 C 1060.57 725.714 1078.37 760.243 1081.52 797.541 C 1086.54 859.051 1060.85 891.525 1019.25 930.912 L 972.489 974.517 C 963.926 982.479 950.738 994.236 943.45 1002.93 L 942.544 1004.03 C 995.686 1003.06 1049.1 1003.04 1102.27 1003.55 C 1143.13 1003.95 1174.13 1017.65 1202.26 1047.65 C 1226.79 1073.37 1239.67 1108.03 1237.87 1143.53 C 1235.32 1204.71 1199.6 1233.99 1158.43 1272 C 1135.61 1293.96 1112.45 1315.57 1088.98 1336.83 C 1065.66 1358.01 1043.55 1383.56 1009.36 1382.8 C 992.362 1382.42 975.764 1376.58 963.861 1364.14 C 953.231 1353.25 947.541 1338.47 948.122 1323.27 C 948.548 1308.71 955.148 1291.26 966.099 1281.38 C 976.261 1266.29 1004.71 1240.35 1019.12 1226.47 L 1113.93 1135.58 C 1058.15 1133.23 1000.89 1136.54 944.907 1134.94 C 870.551 1132.81 811.103 1075.32 815.147 999.474 C 816.023 979.71 821.897 960.492 832.219 943.615 C 846.074 921.248 876.268 895.726 896.366 876.833 C 923.952 850.592 951.866 824.698 980.102 799.157 z" fill="#FFFFFF"/>
<path d="M 966.099 1281.38 C 970.739 1279.14 981.29 1273.95 985.834 1273.43 C 1004.34 1271.31 1026.2 1272.09 1044.91 1272.07 L 1158.43 1272 C 1135.61 1293.96 1112.45 1315.57 1088.98 1336.83 C 1065.66 1358.01 1043.55 1383.56 1009.36 1382.8 C 992.362 1382.42 975.764 1376.58 963.861 1364.14 C 953.231 1353.25 947.541 1338.47 948.122 1323.27 C 948.548 1308.71 955.148 1291.26 966.099 1281.38 z" fill="#5EEAD4"/>
<path d="M 1038.47 665.859 C 1055.09 665.037 1077.25 665.785 1094.54 665.811 L 1199.78 665.789 L 1269.92 665.757 C 1283.09 665.762 1300.85 665.031 1313.4 667.107 C 1333.72 671.019 1354.33 687.115 1361.98 706.475 C 1373.11 734.621 1366.03 757.253 1347.96 779.468 C 1334.3 792.743 1319.07 798.862 1300.09 798.964 C 1283.11 799.055 1266.12 799.03 1249.15 799.007 L 1122.57 798.59 C 1114.61 741.895 1087.52 696.968 1038.47 665.859 z" fill="#FFFFFF"/>
</g></g></svg>
